<svg width="200" height="200" viewBox="0 0 200 200" fill="none" xmlns="http://www.w3.org/2000/svg">
<path d="M156.25 107.813C150.378 107.813 144.639 109.554 139.757 112.816C134.874 116.078 131.069 120.714 128.822 126.139C126.575 131.564 125.987 137.533 127.133 143.292C128.278 149.051 131.106 154.34 135.258 158.492C139.41 162.644 144.699 165.472 150.458 166.617C156.217 167.763 162.186 167.175 167.611 164.928C173.036 162.681 177.672 158.876 180.934 153.994C184.196 149.111 185.938 143.372 185.938 137.5C185.938 129.626 182.81 122.075 177.242 116.508C171.675 110.94 164.124 107.813 156.25 107.813ZM156.25 157.813C152.233 157.813 148.305 156.621 144.965 154.389C141.625 152.157 139.021 148.985 137.484 145.273C135.946 141.562 135.544 137.478 136.328 133.537C137.112 129.597 139.046 125.978 141.887 123.137C144.728 120.296 148.347 118.362 152.287 117.578C156.227 116.794 160.312 117.196 164.023 118.734C167.735 120.271 170.907 122.875 173.139 126.215C175.371 129.555 176.562 133.483 176.562 137.5C176.562 140.168 176.037 142.809 175.016 145.273C173.996 147.738 172.499 149.977 170.613 151.863C168.727 153.749 166.488 155.246 164.023 156.266C161.559 157.287 158.917 157.813 156.25 157.813ZM43.75 107.813C37.8784 107.813 32.1386 109.554 27.2565 112.816C22.3744 116.078 18.5693 120.714 16.3223 126.139C14.0753 131.564 13.4874 137.533 14.6329 143.292C15.7784 149.051 18.6059 154.34 22.7578 158.492C26.9096 162.644 32.1994 165.472 37.9583 166.617C43.7171 167.763 49.6862 167.175 55.1109 164.928C60.5356 162.681 65.1722 158.876 68.4343 153.994C71.6964 149.111 73.4375 143.372 73.4375 137.5C73.4375 129.626 70.3097 122.075 64.7422 116.508C59.1747 110.94 51.6236 107.813 43.75 107.813ZM43.75 157.813C39.7326 157.813 35.8054 156.621 32.465 154.389C29.1246 152.157 26.5211 148.985 24.9837 145.273C23.4463 141.562 23.044 137.478 23.8278 133.537C24.6116 129.597 26.5461 125.978 29.3869 123.137C32.2276 120.296 35.847 118.362 39.7872 117.578C43.7275 116.794 47.8116 117.196 51.5233 118.734C55.2349 120.271 58.4073 122.875 60.6392 126.215C62.8712 129.555 64.0625 133.483 64.0625 137.5C64.0625 142.887 61.9224 148.054 58.1131 151.863C54.3038 155.672 49.1372 157.813 43.75 157.813ZM150 92.1875H118.75C117.507 92.1864 116.316 91.6919 115.437 90.8125L93.75 69.1328L75.3828 87.5L103.313 115.438C104.192 116.316 104.686 117.507 104.688 118.75V156.25C104.688 157.493 104.194 158.686 103.315 159.565C102.435 160.444 101.243 160.938 100 160.938C98.7568 160.938 97.5645 160.444 96.6854 159.565C95.8064 158.686 95.3125 157.493 95.3125 156.25V120.695L65.4375 90.8125C64.5597 89.9336 64.0666 88.7422 64.0666 87.5C64.0666 86.2578 64.5597 85.0664 65.4375 84.1875L90.4375 59.1875C91.3164 58.3097 92.5078 57.8167 93.75 57.8167C94.9922 57.8167 96.1836 58.3097 97.0625 59.1875L120.695 82.8125H150C151.243 82.8125 152.435 83.3064 153.315 84.1855C154.194 85.0645 154.688 86.2568 154.688 87.5C154.688 88.7432 154.194 89.9355 153.315 90.8146C152.435 91.6937 151.243 92.1875 150 92.1875Z" fill="#009F5A"/>
<path d="M125.8 42.9C125.8 50.8529 119.353 57.3 111.4 57.3C103.447 57.3 97 50.8529 97 42.9C97 34.9471 103.447 28.5 111.4 28.5C119.353 28.5 125.8 34.9471 125.8 42.9ZM104.2 42.9C104.2 46.8764 107.424 50.1 111.4 50.1C115.376 50.1 118.6 46.8764 118.6 42.9C118.6 38.9235 115.376 35.7 111.4 35.7C107.424 35.7 104.2 38.9235 104.2 42.9Z" fill="#009F5A"/>
</svg>
