<svg width="30" height="24" viewBox="0 0 30 24" fill="none" xmlns="http://www.w3.org/2000/svg">
<path d="M24.6057 13.7251C23.5896 13.7251 22.5963 14.0264 21.7515 14.5909C20.9066 15.1554 20.2481 15.9578 19.8593 16.8965C19.4705 17.8353 19.3687 18.8682 19.5669 19.8648C19.7652 20.8614 20.2545 21.7768 20.973 22.4953C21.6914 23.2138 22.6068 23.7031 23.6034 23.9013C24.6 24.0995 25.633 23.9978 26.5717 23.6089C27.5104 23.2201 28.3128 22.5616 28.8773 21.7168C29.4418 20.8719 29.7431 19.8786 29.7431 18.8626C29.7431 17.5 29.2019 16.1933 28.2384 15.2298C27.2749 14.2664 25.9682 13.7251 24.6057 13.7251ZM24.6057 22.3776C23.9105 22.3776 23.2309 22.1715 22.6528 21.7852C22.0747 21.399 21.6242 20.85 21.3582 20.2077C21.0921 19.5654 21.0225 18.8587 21.1581 18.1768C21.2938 17.4949 21.6285 16.8686 22.1201 16.377C22.6117 15.8854 23.2381 15.5506 23.9199 15.415C24.6018 15.2794 25.3085 15.349 25.9508 15.615C26.5931 15.8811 27.1421 16.3316 27.5284 16.9097C27.9146 17.4877 28.1208 18.1673 28.1208 18.8626C28.1208 19.3242 28.0299 19.7812 27.8532 20.2077C27.6766 20.6342 27.4176 21.0217 27.0912 21.3481C26.7648 21.6745 26.3773 21.9334 25.9508 22.1101C25.5244 22.2867 25.0673 22.3776 24.6057 22.3776ZM5.13745 13.7251C4.12136 13.7251 3.12809 14.0264 2.28324 14.5909C1.43839 15.1554 0.779909 15.9578 0.391067 16.8965C0.00222598 17.8353 -0.0995126 18.8682 0.098717 19.8648C0.296947 20.8614 0.786241 21.7768 1.50473 22.4953C2.22321 23.2138 3.13862 23.7031 4.13518 23.9013C5.13175 24.0995 6.16472 23.9978 7.10347 23.6089C8.04221 23.2201 8.84457 22.5616 9.40908 21.7168C9.97359 20.8719 10.2749 19.8786 10.2749 18.8626C10.2749 17.5 9.73363 16.1933 8.77018 15.2298C7.80672 14.2664 6.49999 13.7251 5.13745 13.7251ZM5.13745 22.3776C4.44223 22.3776 3.76262 22.1715 3.18457 21.7852C2.60651 21.399 2.15597 20.85 1.88993 20.2077C1.62388 19.5654 1.55427 18.8587 1.6899 18.1768C1.82553 17.4949 2.16031 16.8686 2.6519 16.377C3.1435 15.8854 3.76983 15.5506 4.45169 15.415C5.13355 15.2794 5.84032 15.349 6.48262 15.615C7.12492 15.8811 7.6739 16.3316 8.06015 16.9097C8.44639 17.4877 8.65255 18.1673 8.65255 18.8626C8.65255 19.7948 8.28221 20.6889 7.623 21.3481C6.96379 22.0073 6.06971 22.3776 5.13745 22.3776ZM23.5241 11.0212H18.1163C17.9012 11.021 17.695 10.9354 17.543 10.7832L13.79 7.03155L10.6115 10.21L15.4448 15.0446C15.597 15.1966 15.6826 15.4028 15.6827 15.6178V22.1073C15.6827 22.3224 15.5973 22.5287 15.4452 22.6808C15.293 22.833 15.0867 22.9184 14.8716 22.9184C14.6564 22.9184 14.4501 22.833 14.298 22.6808C14.1459 22.5287 14.0604 22.3224 14.0604 22.1073V15.9545L8.89049 10.7832C8.73859 10.6311 8.65326 10.425 8.65326 10.21C8.65326 9.99504 8.73859 9.78887 8.89049 9.63677L13.2168 5.3105C13.3689 5.15859 13.575 5.07327 13.79 5.07327C14.005 5.07327 14.2111 5.15859 14.3632 5.3105L18.4529 9.39883H23.5241C23.7392 9.39883 23.9456 9.48429 24.0977 9.63642C24.2498 9.78854 24.3353 9.99487 24.3353 10.21C24.3353 10.4251 24.2498 10.6315 24.0977 10.7836C23.9456 10.9357 23.7392 11.0212 23.5241 11.0212Z" fill="#009F5A"/>
<path d="M19.3363 2.49193C19.3363 3.86819 18.2206 4.98387 16.8443 4.98387C15.4681 4.98387 14.3524 3.86819 14.3524 2.49193C14.3524 1.11568 15.4681 0 16.8443 0C18.2206 0 19.3363 1.11568 19.3363 2.49193ZM15.5984 2.49193C15.5984 3.18006 16.1562 3.7379 16.8443 3.7379C17.5325 3.7379 18.0903 3.18006 18.0903 2.49193C18.0903 1.8038 17.5325 1.24597 16.8443 1.24597C16.1562 1.24597 15.5984 1.8038 15.5984 2.49193Z" fill="#009F5A"/>
</svg>
