<svg width="200" height="200" viewBox="0 0 200 200" fill="none" xmlns="http://www.w3.org/2000/svg">
<path d="M156.25 107.813C150.378 107.813 144.639 109.554 139.757 112.816C134.874 116.078 131.069 120.714 128.822 126.139C126.575 131.564 125.987 137.533 127.133 143.292C128.278 149.051 131.106 154.34 135.258 158.492C139.41 162.644 144.699 165.472 150.458 166.617C156.217 167.763 162.186 167.175 167.611 164.928C173.036 162.681 177.672 158.876 180.934 153.994C184.196 149.111 185.938 143.372 185.938 137.5C185.938 129.626 182.81 122.075 177.242 116.508C171.675 110.94 164.124 107.813 156.25 107.813ZM156.25 157.813C152.233 157.813 148.305 156.621 144.965 154.389C141.625 152.157 139.021 148.985 137.484 145.273C135.946 141.562 135.544 137.478 136.328 133.537C137.112 129.597 139.046 125.978 141.887 123.137C144.728 120.296 148.347 118.362 152.287 117.578C156.227 116.794 160.312 117.196 164.023 118.734C167.735 120.271 170.907 122.875 173.139 126.215C175.371 129.555 176.562 133.483 176.562 137.5C176.562 140.168 176.037 142.809 175.016 145.273C173.996 147.738 172.499 149.977 170.613 151.863C168.727 153.749 166.488 155.246 164.023 156.266C161.559 157.287 158.917 157.813 156.25 157.813ZM43.7501 107.813C37.8785 107.813 32.1387 109.554 27.2566 112.816C22.3745 116.078 18.5694 120.714 16.3224 126.139C14.0754 131.564 13.4875 137.533 14.633 143.292C15.7785 149.051 18.606 154.34 22.7579 158.492C26.9097 162.644 32.1995 165.472 37.9584 166.617C43.7172 167.763 49.6863 167.175 55.111 164.928C60.5357 162.681 65.1723 158.876 68.4344 153.994C71.6965 149.111 73.4376 143.372 73.4376 137.5C73.4376 129.626 70.3098 122.075 64.7423 116.508C59.1748 110.94 51.6237 107.813 43.7501 107.813ZM43.7501 157.813C39.7327 157.813 35.8055 156.621 32.4651 154.389C29.1247 152.157 26.5212 148.985 24.9838 145.273C23.4464 141.562 23.0441 137.478 23.8279 133.537C24.6117 129.597 26.5462 125.978 29.387 123.137C32.2277 120.296 35.8471 118.362 39.7873 117.578C43.7276 116.794 47.8117 117.196 51.5234 118.734C55.235 120.271 58.4074 122.875 60.6393 126.215C62.8713 129.555 64.0626 133.483 64.0626 137.5C64.0626 142.887 61.9225 148.054 58.1132 151.863C54.3039 155.672 49.1373 157.813 43.7501 157.813ZM150 92.1877H118.75C117.507 92.1866 116.316 91.6921 115.437 90.8127L93.7501 69.133L75.3829 87.5002L103.313 115.438C104.192 116.316 104.686 117.507 104.688 118.75V156.25C104.688 157.493 104.194 158.686 103.315 159.565C102.435 160.444 101.243 160.938 100 160.938C98.7569 160.938 97.5646 160.444 96.6855 159.565C95.8065 158.686 95.3126 157.493 95.3126 156.25V120.695L65.4376 90.8127C64.5598 89.9338 64.0667 88.7424 64.0667 87.5002C64.0667 86.258 64.5598 85.0666 65.4376 84.1877L90.4376 59.1877C91.3165 58.3099 92.5079 57.8169 93.7501 57.8169C94.9923 57.8169 96.1837 58.3099 97.0626 59.1877L120.695 82.8127H150C151.243 82.8127 152.435 83.3066 153.315 84.1857C154.194 85.0647 154.688 86.257 154.688 87.5002C154.688 88.7434 154.194 89.9357 153.315 90.8148C152.435 91.6939 151.243 92.1877 150 92.1877Z" fill="#207F56"/>
<path d="M125.8 42.9C125.8 50.8529 119.353 57.3 111.4 57.3C103.447 57.3 97 50.8529 97 42.9C97 34.9471 103.447 28.5 111.4 28.5C119.353 28.5 125.8 34.9471 125.8 42.9ZM104.2 42.9C104.2 46.8764 107.424 50.1 111.4 50.1C115.376 50.1 118.6 46.8764 118.6 42.9C118.6 38.9235 115.376 35.7 111.4 35.7C107.424 35.7 104.2 38.9235 104.2 42.9Z" fill="#207F56"/>
</svg>
