<svg width="24" height="24" viewBox="0 0 24 24" fill="none" xmlns="http://www.w3.org/2000/svg">
<path d="M18.75 13.4063C18.0454 13.4063 17.3566 13.6152 16.7708 14.0066C16.1849 14.3981 15.7283 14.9545 15.4587 15.6054C15.189 16.2564 15.1185 16.9727 15.256 17.6638C15.3934 18.3548 15.7327 18.9896 16.2309 19.4878C16.7292 19.986 17.3639 20.3253 18.055 20.4628C18.746 20.6003 19.4624 20.5297 20.1133 20.2601C20.7643 19.9904 21.3207 19.5338 21.7121 18.948C22.1036 18.3621 22.3125 17.6733 22.3125 16.9688C22.3125 16.0239 21.9372 15.1178 21.2691 14.4497C20.601 13.7816 19.6948 13.4063 18.75 13.4063ZM18.75 19.4062C18.2679 19.4062 17.7966 19.2633 17.3958 18.9955C16.995 18.7276 16.6825 18.3469 16.498 17.9015C16.3136 17.4561 16.2653 16.966 16.3593 16.4932C16.4534 16.0204 16.6855 15.5861 17.0264 15.2452C17.3673 14.9043 17.8016 14.6721 18.2745 14.5781C18.7473 14.484 19.2374 14.5323 19.6828 14.7168C20.1282 14.9013 20.5089 15.2137 20.7767 15.6145C21.0445 16.0154 21.1875 16.4867 21.1875 16.9688C21.1875 17.2888 21.1245 17.6058 21.002 17.9015C20.8795 18.1973 20.6999 18.466 20.4736 18.6923C20.2472 18.9187 19.9785 19.0982 19.6828 19.2207C19.3871 19.3432 19.0701 19.4062 18.75 19.4062ZM5.25 13.4063C4.54541 13.4063 3.85663 13.6152 3.27078 14.0066C2.68493 14.3981 2.22832 14.9545 1.95868 15.6054C1.68904 16.2564 1.61849 16.9727 1.75595 17.6638C1.89341 18.3548 2.23271 18.9896 2.73093 19.4878C3.22916 19.986 3.86393 20.3253 4.55499 20.4628C5.24605 20.6003 5.96235 20.5297 6.61331 20.2601C7.26427 19.9904 7.82066 19.5338 8.21211 18.948C8.60356 18.3621 8.8125 17.6733 8.8125 16.9688C8.8125 16.0239 8.43717 15.1178 7.76907 14.4497C7.10097 13.7816 6.19484 13.4063 5.25 13.4063ZM5.25 19.4062C4.76791 19.4062 4.29664 19.2633 3.8958 18.9955C3.49495 18.7276 3.18253 18.3469 2.99805 17.9015C2.81356 17.4561 2.76529 16.966 2.85934 16.4932C2.95339 16.0204 3.18554 15.5861 3.52643 15.2452C3.86732 14.9043 4.30164 14.6721 4.77447 14.5781C5.2473 14.484 5.7374 14.5323 6.18279 14.7168C6.62819 14.9013 7.00887 15.2137 7.27671 15.6145C7.54454 16.0154 7.6875 16.4867 7.6875 16.9688C7.6875 17.6152 7.43069 18.2352 6.97357 18.6923C6.51645 19.1494 5.89647 19.4062 5.25 19.4062ZM18 11.5313H14.25C14.1009 11.5311 13.9579 11.4718 13.8525 11.3663L11.25 8.76469L9.04594 10.9688L12.3975 14.3212C12.503 14.4266 12.5624 14.5696 12.5625 14.7188V19.2188C12.5625 19.3679 12.5032 19.511 12.3977 19.6165C12.2923 19.722 12.1492 19.7812 12 19.7812C11.8508 19.7812 11.7077 19.722 11.6023 19.6165C11.4968 19.511 11.4375 19.3679 11.4375 19.2188V14.9522L7.8525 11.3663C7.74716 11.2608 7.688 11.1178 7.688 10.9688C7.688 10.8197 7.74716 10.6767 7.8525 10.5713L10.8525 7.57125C10.958 7.46591 11.1009 7.40675 11.25 7.40675C11.3991 7.40675 11.542 7.46591 11.6475 7.57125L14.4834 10.4063H18C18.1492 10.4063 18.2923 10.4655 18.3977 10.571C18.5032 10.6765 18.5625 10.8196 18.5625 10.9688C18.5625 11.1179 18.5032 11.261 18.3977 11.3665C18.2923 11.472 18.1492 11.5313 18 11.5313Z" fill="#009F5A"/>
<path d="M14.456 5.19675C14.456 6.1511 13.6823 6.92475 12.728 6.92475C11.7737 6.92475 11 6.1511 11 5.19675C11 4.2424 11.7737 3.46875 12.728 3.46875C13.6823 3.46875 14.456 4.2424 14.456 5.19675ZM11.864 5.19675C11.864 5.67392 12.2508 6.06075 12.728 6.06075C13.2052 6.06075 13.592 5.67392 13.592 5.19675C13.592 4.71958 13.2052 4.33275 12.728 4.33275C12.2508 4.33275 11.864 4.71958 11.864 5.19675Z" fill="#009F5A"/>
</svg>
