<svg width="32" height="32" viewBox="0 0 32 32" fill="none" xmlns="http://www.w3.org/2000/svg">
<path d="M25.8347 16.5547L11.7027 25.976C11.6024 26.0428 11.4857 26.0811 11.3653 26.0869C11.2448 26.0926 11.1251 26.0656 11.0187 26.0087C10.9124 25.9518 10.8236 25.8671 10.7616 25.7637C10.6996 25.6602 10.6668 25.5419 10.6667 25.4213V6.57866C10.6668 6.45807 10.6996 6.33976 10.7616 6.23632C10.8236 6.13288 10.9124 6.04819 11.0187 5.99127C11.1251 5.93435 11.2448 5.90734 11.3653 5.9131C11.4857 5.91886 11.6024 5.95719 11.7027 6.02399L25.8347 15.4453C25.9261 15.5062 26.0009 15.5887 26.0527 15.6854C26.1045 15.7822 26.1316 15.8903 26.1316 16C26.1316 16.1097 26.1045 16.2178 26.0527 16.3145C26.0009 16.4113 25.9261 16.4938 25.8347 16.5547Z" fill="white"/>
</svg>
